<?xml version="1.0" encoding="iso-8859-1"?>
<!-- Generator: Adobe Illustrator 23.0.1, SVG Export Plug-In . SVG Version: 6.00 Build 0)  -->
<svg version="1.1" id="Camada_1" xmlns="http://www.w3.org/2000/svg" xmlns:xlink="http://www.w3.org/1999/xlink" x="0px" y="0px"
	 viewBox="0 0 280.957 72.391" style="enable-background:new 0 0 280.957 72.391;" xml:space="preserve">
<g>
	<g>
		<path style="fill:#ECF6F6;" d="M98.287,33.24c1.2-2.226,2.835-3.957,4.905-5.192c2.069-1.234,4.357-1.852,6.862-1.852
			c2.261,0,4.235,0.443,5.923,1.33c1.687,0.887,3.035,1.992,4.044,3.314v-4.175h6.001v28.752h-6.001v-4.279
			c-1.009,1.357-2.383,2.488-4.122,3.392c-1.74,0.904-3.723,1.357-5.949,1.357c-2.471,0-4.731-0.634-6.784-1.904
			c-2.053-1.27-3.679-3.044-4.879-5.323c-1.2-2.278-1.8-4.861-1.8-7.749C96.486,38.024,97.086,35.467,98.287,33.24z M118.794,35.849
			c-0.818-1.461-1.888-2.574-3.209-3.34c-1.323-0.765-2.749-1.148-4.279-1.148c-1.531,0-2.957,0.374-4.279,1.122
			c-1.323,0.748-2.392,1.844-3.209,3.287c-0.818,1.444-1.226,3.157-1.226,5.14s0.409,3.723,1.226,5.218
			c0.817,1.496,1.896,2.635,3.235,3.418c1.339,0.783,2.757,1.174,4.253,1.174c1.53,0,2.956-0.382,4.279-1.148
			c1.322-0.765,2.391-1.887,3.209-3.366c0.817-1.478,1.226-3.209,1.226-5.192C120.02,39.032,119.611,37.31,118.794,35.849z"/>
		<path style="fill:#ECF6F6;" d="M131.057,33.24c1.2-2.226,2.835-3.957,4.905-5.192c2.07-1.234,4.375-1.852,6.914-1.852
			c1.878,0,3.731,0.409,5.557,1.226c1.826,0.818,3.278,1.905,4.357,3.261v-13.88h6.001v38.614h-6.001v-4.331
			c-0.974,1.392-2.322,2.54-4.044,3.444c-1.722,0.904-3.697,1.357-5.922,1.357c-2.505,0-4.793-0.634-6.862-1.904
			c-2.07-1.27-3.705-3.044-4.905-5.323c-1.2-2.278-1.8-4.861-1.8-7.749C129.256,38.024,129.856,35.467,131.057,33.24z
			 M151.564,35.849c-0.818-1.461-1.888-2.574-3.209-3.34c-1.323-0.765-2.749-1.148-4.279-1.148c-1.531,0-2.957,0.374-4.279,1.122
			c-1.323,0.748-2.393,1.844-3.209,3.287c-0.818,1.444-1.226,3.157-1.226,5.14s0.409,3.723,1.226,5.218
			c0.817,1.496,1.895,2.635,3.235,3.418c1.338,0.783,2.757,1.174,4.253,1.174c1.53,0,2.956-0.382,4.279-1.148
			c1.321-0.765,2.391-1.887,3.209-3.366c0.817-1.478,1.226-3.209,1.226-5.192C152.79,39.032,152.381,37.31,151.564,35.849z"/>
		<path style="fill:#ECF6F6;" d="M189.892,26.665l-17.637,42.267h-6.158l5.844-13.985l-11.323-28.283h6.627l8.088,21.917
			l8.401-21.917H189.892z"/>
		<path style="fill:#ECF6F6;" d="M196.126,54.66c-1.792-0.817-3.209-1.93-4.253-3.339s-1.6-2.982-1.67-4.723h6.158
			c0.104,1.218,0.686,2.236,1.748,3.053c1.061,0.818,2.392,1.226,3.992,1.226c1.67,0,2.965-0.321,3.887-0.965
			c0.921-0.643,1.383-1.469,1.383-2.479c0-1.078-0.514-1.878-1.539-2.4c-1.027-0.522-2.653-1.096-4.879-1.722
			c-2.157-0.591-3.913-1.165-5.27-1.722c-1.357-0.556-2.531-1.409-3.522-2.557c-0.991-1.148-1.487-2.661-1.487-4.54
			c0-1.531,0.452-2.93,1.357-4.201c0.904-1.269,2.2-2.27,3.887-3c1.687-0.73,3.627-1.096,5.818-1.096
			c3.27,0,5.905,0.827,7.906,2.478c2,1.653,3.07,3.906,3.209,6.758h-5.949c-0.104-1.287-0.626-2.313-1.565-3.079
			c-0.939-0.765-2.21-1.148-3.809-1.148c-1.566,0-2.766,0.296-3.601,0.887c-0.835,0.592-1.252,1.375-1.252,2.348
			c0,0.766,0.278,1.409,0.835,1.931c0.556,0.522,1.234,0.931,2.035,1.226c0.8,0.296,1.983,0.67,3.548,1.122
			c2.087,0.557,3.8,1.122,5.14,1.696c1.339,0.574,2.496,1.418,3.47,2.531c0.973,1.114,1.478,2.592,1.513,4.435
			c0,1.635-0.452,3.097-1.356,4.384c-0.905,1.287-2.183,2.296-3.835,3.027c-1.653,0.731-3.592,1.096-5.819,1.096
			C199.944,55.887,197.918,55.478,196.126,54.66z"/>
		<path style="fill:#ECF6F6;" d="M222.139,54.035c-2.192-1.235-3.914-2.974-5.166-5.218c-1.252-2.244-1.878-4.844-1.878-7.801
			c0-2.922,0.643-5.513,1.931-7.775c1.286-2.261,3.044-4,5.27-5.218c2.226-1.217,4.714-1.826,7.462-1.826s5.236,0.609,7.462,1.826
			c2.226,1.218,3.983,2.957,5.27,5.218c1.287,2.262,1.931,4.853,1.931,7.775s-0.661,5.514-1.983,7.775
			c-1.323,2.261-3.123,4.01-5.401,5.244c-2.279,1.235-4.793,1.852-7.541,1.852C226.784,55.887,224.331,55.269,222.139,54.035z
			 M233.802,49.625c1.338-0.731,2.426-1.826,3.261-3.287c0.835-1.461,1.252-3.235,1.252-5.322s-0.401-3.852-1.2-5.296
			c-0.801-1.443-1.861-2.531-3.183-3.261c-1.323-0.731-2.749-1.096-4.279-1.096c-1.531,0-2.948,0.365-4.253,1.096
			c-1.304,0.73-2.34,1.818-3.105,3.261c-0.766,1.444-1.148,3.209-1.148,5.296c0,3.097,0.791,5.488,2.375,7.175
			c1.582,1.688,3.574,2.531,5.974,2.531C231.028,50.721,232.462,50.356,233.802,49.625z"/>
		<path style="fill:#ECF6F6;" d="M268.294,27.604c1.791,0.939,3.191,2.331,4.201,4.174c1.008,1.844,1.513,4.07,1.513,6.68v16.959
			h-5.897V39.345c0-2.574-0.644-4.548-1.931-5.923c-1.287-1.374-3.044-2.061-5.27-2.061s-3.992,0.687-5.296,2.061
			c-1.304,1.375-1.957,3.349-1.957,5.923v16.072h-5.948V26.665h5.948v3.288c0.974-1.182,2.218-2.105,3.731-2.766
			c1.513-0.66,3.122-0.991,4.827-0.991C264.476,26.195,266.502,26.665,268.294,27.604z"/>
	</g>
	<g>
		<path style="fill:#0ED7D7;" d="M77.983,4.678c-17.037,3.72-32.516,12.117-44.946,24.368c-6.398-6.299-13.641-11.613-21.569-15.809
			l-4.254-2.248v57.793h74.28V3.907L77.983,4.678z M33.037,37.449c2.984,3.367,5.72,6.971,8.154,10.773
			c-3.129,3.79-5.859,7.864-8.154,12.181c-2.301-4.323-5.03-8.403-8.159-12.187C27.317,44.414,30.053,40.81,33.037,37.449z
			 M13.01,20.765c5.807,3.506,11.173,7.678,16.023,12.471c-2.961,3.292-5.691,6.815-8.154,10.518
			c-2.445-2.521-5.076-4.868-7.87-7.012V20.765z M13.01,44.246c1.646,1.455,3.222,2.99,4.711,4.595
			c-1.744,3.037-3.326,6.183-4.711,9.405V44.246z M17.315,62.987c1.281-3.228,2.753-6.38,4.41-9.428
			c2.312,2.973,4.358,6.125,6.125,9.428H17.315z M38.218,62.987c1.773-3.303,3.819-6.456,6.125-9.428
			c1.663,3.048,3.135,6.201,4.416,9.428H38.218z M75.7,62.987h-20.74c-1.796-4.885-4.016-9.625-6.612-14.14
			c7.557-8.136,16.927-14.238,27.352-17.831V62.987z M45.189,43.754c-2.457-3.703-5.187-7.221-8.148-10.518
			C47.843,22.573,61.102,15.016,75.7,11.18v13.74C64.11,28.565,53.661,35.021,45.189,43.754z"/>
	</g>
</g>
</svg>
