<svg width="26" height="26" viewBox="0 0 26 26" fill="none" xmlns="http://www.w3.org/2000/svg">
<path d="M23.7229 20.1321C25.2555 17.8566 25.9382 15.3211 25.8708 12.5813C25.7251 6.65535 21.3462 1.47472 15.505 0.316225C15.0424 0.22447 14.5759 0.159022 14.1066 0.113465C14.0511 0.108011 13.9856 0.126619 13.9484 0.0621338C13.2747 0.0621338 12.6006 0.0621338 11.9269 0.0621338C11.5329 0.182121 11.1197 0.180517 10.7177 0.252702C7.76294 0.783663 5.28073 2.16705 3.28233 4.39805C1.40552 6.49302 0.345202 8.95886 0.0548574 11.7561C0.048441 11.8193 0.0721851 11.8941 0 11.9387C0 12.6461 0 13.3538 0 14.0612C0.122233 14.4456 0.11645 14.8504 0.193768 15.2425C1.04684 19.5691 3.45173 22.7148 7.39143 24.6821C8.77514 25.3728 10.2541 25.7465 11.7928 25.8874C11.8416 25.8919 11.8955 25.8855 11.9269 25.9377C12.5839 25.9377 13.241 25.9377 13.8977 25.9377C14.3266 25.8723 14.7578 25.8194 15.1839 25.7398C18.8117 25.0619 21.6655 23.187 23.7229 20.1321ZM15.0633 20.3141C14.9484 20.1312 15.2166 20.0821 15.3283 19.9984C15.9288 19.547 16.0953 18.9153 15.7748 18.2332C15.522 17.6945 15.0924 17.3355 14.5583 17.111C13.5737 16.6971 12.5509 16.6519 11.5089 16.8469C11.3048 16.8851 11.368 16.9868 11.4062 17.1148C12.1258 19.53 10.7861 22.0664 8.28588 22.6708C7.70263 22.812 7.11455 22.8004 6.53611 22.6413C6.14888 22.5348 5.91403 22.2396 5.76549 21.8906C5.34522 20.9044 5.58423 20.0093 6.20438 19.1934C6.61054 18.6589 7.1415 18.2521 7.68498 17.8655C8.29005 17.4353 8.9272 17.0574 9.5881 16.7215C9.77385 16.6272 9.79567 16.5659 9.61858 16.4411C8.87587 15.9165 8.13316 15.3917 7.3988 14.8553C6.73791 14.3724 6.10236 13.8556 5.59482 13.2069C4.50563 11.8142 4.47354 10.9037 5.23486 9.45967C5.83961 8.31305 6.73567 7.41057 7.75781 6.63643C9.77578 5.10835 12.0106 4.01306 14.4787 3.43686C15.9343 3.09679 17.4008 3.08909 18.8442 3.55397C18.9959 3.60273 19.1451 3.6624 19.2907 3.72785C20.8291 4.41987 21.4444 5.6746 21.044 7.31497C20.7566 8.49271 20.1143 9.4648 19.2083 10.2438C17.2975 11.8873 15.0559 12.4231 12.5916 12.0824C11.9493 11.9935 11.4113 11.6496 10.9898 11.1456C10.8637 10.9948 10.7774 10.8228 10.736 10.6294C10.7209 10.5585 10.7302 10.4924 10.7889 10.4462C10.8537 10.3952 10.9198 10.4189 10.9702 10.4709C11.8826 11.4119 13.019 11.4218 14.1919 11.2271C15.9186 10.9403 17.4354 10.2268 18.6407 8.92999C19.1996 8.32877 19.6228 7.64766 19.7315 6.80903C19.8246 6.09135 19.5561 5.56007 18.9189 5.21647C18.3905 4.93158 17.6513 4.78304 16.5846 4.78881C15.3578 4.80357 14.002 5.15262 12.7039 5.72272C10.9843 6.47794 9.35069 7.37753 7.99778 8.71215C7.50179 9.2014 7.09113 9.75322 6.85661 10.4196C6.53643 11.3291 6.64487 12.1745 7.23261 12.9496C7.67535 13.5331 8.24032 13.9861 8.81074 14.4337C9.4665 14.948 10.1473 15.4331 10.7203 16.0445C10.8178 16.1488 10.9035 16.1158 11.0135 16.0904C12.0507 15.8524 13.0963 15.7597 14.1377 16.0378C15.121 16.3006 15.8897 16.8572 16.2994 17.8197C16.7242 18.8177 16.4065 19.7812 15.5134 20.247C15.3732 20.3201 15.1662 20.478 15.0633 20.3141Z" fill="#636973"/>
<path d="M10.1975 17.4013C9.51635 17.7574 8.87406 18.17 8.29947 18.6817C7.76305 19.1594 7.32738 19.7103 7.14322 20.4202C6.93244 21.2338 7.31262 21.6054 8.13039 21.3987C9.4432 21.0673 10.4974 19.6692 10.499 18.2088C10.4888 18.0051 10.4618 17.7552 10.4137 17.5065C10.3858 17.3612 10.3405 17.3265 10.1975 17.4013Z" fill="#636973"/>
</svg>
