<svg width="27" height="26" viewBox="0 0 27 26" fill="none" xmlns="http://www.w3.org/2000/svg">
<path d="M0.981709 0.338136C0.77252 0.337822 0.746094 0.391283 0.746094 0.583116C0.751756 8.86118 0.751756 17.1389 0.746094 25.417C0.746094 25.6088 0.77252 25.662 0.981709 25.662C9.34455 25.6547 17.7071 25.656 26.0699 25.656C26.0699 17.2188 26.0699 8.78161 26.0699 0.344425C17.7071 0.344425 9.34424 0.345369 0.981709 0.338136ZM14.5428 16.2854C14.5428 17.5374 14.5438 18.7896 14.5422 20.0416C14.5416 20.5123 14.4937 20.9771 14.3607 21.4319C14.0486 22.4977 13.3638 23.1983 12.2943 23.4911C11.1958 23.7917 10.1105 23.7505 9.07119 23.2414C8.36593 22.8958 7.86481 22.3414 7.49519 21.6577C7.43417 21.5445 7.43228 21.4806 7.55716 21.4074C8.11049 21.0825 8.65942 20.7504 9.20457 20.412C9.32756 20.3356 9.38104 20.3573 9.44742 20.4778C9.54242 20.6501 9.65031 20.8171 9.76859 20.9743C10.1731 21.5118 10.8636 21.6998 11.4931 21.453C11.9042 21.2919 12.0621 20.9498 12.1203 20.5488C12.1521 20.3296 12.1625 20.106 12.1628 19.884C12.1656 17.3304 12.1678 14.7769 12.1587 12.2233C12.1577 11.9997 12.2188 11.9528 12.4308 11.9579C13.0483 11.973 13.6671 11.9761 14.2842 11.9566C14.5155 11.9494 14.5491 12.0264 14.5475 12.2324C14.5453 12.5702 14.5438 12.9079 14.5431 13.2457C14.5403 14.2589 14.5428 15.2722 14.5428 16.2854ZM23.8903 21.5533C23.4886 22.6816 22.5845 23.2449 21.4734 23.5257C21.0406 23.6351 20.5973 23.6738 20.0604 23.6766C18.7766 23.6543 17.5356 23.2895 16.5513 22.27C16.2984 22.008 16.0905 21.713 15.9077 21.3979C15.8401 21.2816 15.8442 21.2243 15.9697 21.1539C16.5145 20.8473 17.0565 20.5353 17.5916 20.2123C17.7351 20.1259 17.7923 20.1608 17.8741 20.2884C18.2406 20.8595 18.7146 21.302 19.3938 21.4721C19.9248 21.6052 20.4552 21.6118 20.9704 21.403C21.369 21.2416 21.6534 20.9658 21.7106 20.5218C21.7694 20.0639 21.5876 19.7007 21.212 19.4375C20.7433 19.1091 20.2098 18.9088 19.6895 18.6843C18.9635 18.3704 18.2368 18.0572 17.6379 17.5223C16.6032 16.598 16.3318 15.4247 16.6567 14.1297C16.9735 12.8673 17.8898 12.1896 19.1258 11.9195C19.7697 11.7786 20.4209 11.799 21.0648 11.9324C22.0692 12.1403 22.7978 12.7287 23.3222 13.5941C23.3851 13.6979 23.3917 13.7513 23.2781 13.8224C22.7477 14.1542 22.2193 14.4885 21.6993 14.8363C21.5464 14.9385 21.5065 14.8536 21.4435 14.7486C21.0613 14.1127 20.5121 13.8127 19.764 13.9328C19.3479 13.9998 19.0387 14.2212 18.9286 14.6375C18.8185 15.0533 18.8946 15.4407 19.2305 15.7436C19.491 15.9785 19.8056 16.1238 20.1211 16.2659C20.9449 16.637 21.7871 16.9663 22.5533 17.4591C24.163 18.494 24.3612 20.2306 23.8903 21.5533Z" fill="#636973"/>
</svg>
