<svg width="25" height="26" viewBox="0 0 25 26" fill="none" xmlns="http://www.w3.org/2000/svg">
<path d="M11.979 0.0241699C12.2154 0.0241699 12.4522 0.0241699 12.6886 0.0241699C13.8346 0.268637 14.6261 0.998187 15.2703 1.92248C15.8487 2.75212 16.2613 3.66454 16.5895 4.61706C16.6957 4.92505 16.7935 5.23593 16.8975 5.5529C16.9674 5.53975 17.0165 5.53173 17.065 5.52114C18.082 5.29464 19.1089 5.15733 20.1529 5.19775C20.9585 5.22887 21.7483 5.35014 22.4894 5.69118C23.8988 6.33956 24.4843 7.55131 24.1141 9.055C23.8327 10.1971 23.2061 11.1532 22.4756 12.0486C22.1455 12.4532 21.7868 12.8343 21.4314 13.2369C21.4904 13.3046 21.551 13.3736 21.6117 13.4426C22.3983 14.3431 23.091 15.3056 23.5587 16.4147C23.8722 17.1574 24.0698 17.927 23.9168 18.7329C23.6861 19.9453 22.8661 20.6184 21.7374 20.954C20.6023 21.2912 19.4487 21.2055 18.2988 21.0323C17.8523 20.9649 17.4102 20.868 17.0069 20.7923C16.6966 21.5597 16.4371 22.32 16.0884 23.0371C15.4281 24.3942 14.5802 25.5825 12.9928 25.9758C12.7563 25.9758 12.5195 25.9758 12.2831 25.9758C11.6934 25.8337 11.1352 25.6104 10.7005 25.1802C10.3242 24.8083 9.95714 24.4157 9.65268 23.9848C8.9597 23.004 8.52851 21.8943 8.17946 20.7519C8.14866 20.6508 8.11401 20.5507 8.07808 20.4403C7.01968 20.6893 5.97765 20.8385 4.91669 20.8048C4.04084 20.7772 3.18522 20.6457 2.38862 20.2546C1.64527 19.8895 1.08351 19.3547 0.851551 18.5347C0.68344 17.9405 0.735092 17.3467 0.905449 16.7612C1.2205 15.6774 1.83391 14.7615 2.54165 13.9033C2.86215 13.5148 3.20607 13.1458 3.53876 12.7685C3.28082 12.457 3.01903 12.1586 2.77649 11.8449C2.07036 10.9312 1.46304 9.96261 1.16307 8.83075C0.652323 6.90357 1.5147 5.45441 3.44926 4.99307C4.41686 4.7624 5.39408 4.78453 6.3697 4.91767C6.91831 4.99243 7.46113 5.10824 8.0184 5.20738C8.05594 5.09188 8.08546 4.97767 8.12941 4.86955C8.43002 4.12813 8.68315 3.36201 9.04728 2.65331C9.68283 1.41558 10.5304 0.373866 11.979 0.0241699ZM16.3367 13.2414C16.3601 13.2411 16.3835 13.2408 16.4073 13.2405C16.3688 12.4904 16.3364 11.74 16.2854 10.9908C16.2783 10.8859 16.2055 10.7448 16.1192 10.6925C15.003 10.0136 13.8805 9.34567 12.7541 8.68445C12.6767 8.6389 12.5343 8.62895 12.457 8.66937C11.2337 9.31166 10.0149 9.96197 8.80121 10.6222C8.72036 10.6662 8.64369 10.8041 8.64401 10.8978C8.64946 12.2812 8.66615 13.6643 8.68989 15.0473C8.69117 15.1295 8.75566 15.244 8.82527 15.2863C9.95714 15.9713 11.0932 16.6495 12.234 17.3194C12.3097 17.364 12.4522 17.3662 12.5305 17.3252C13.7461 16.6867 14.9581 16.0406 16.1647 15.3851C16.2469 15.3406 16.3267 15.2077 16.329 15.1144C16.3434 14.4904 16.3367 13.8657 16.3367 13.2414ZM9.48232 5.63311C9.53975 5.66263 9.5683 5.68027 9.59878 5.69278C10.568 6.08354 11.5362 6.47655 12.5086 6.85897C12.5969 6.89362 12.7217 6.88367 12.8144 6.85159C13.6187 6.57312 14.4198 6.28534 15.2215 5.99917C15.2822 5.97767 15.3399 5.9488 15.4108 5.91832C15.0306 4.71844 14.6087 3.55193 13.8465 2.55033C13.6254 2.25998 13.3457 1.99659 13.0457 1.78869C12.5465 1.44253 12.0194 1.47814 11.5442 1.85639C11.3155 2.03829 11.0999 2.251 10.9267 2.48552C10.2305 3.42713 9.8256 4.50638 9.48232 5.63311ZM7.67769 18.9758C7.53814 18.0438 7.4082 17.1433 7.26287 16.2453C7.24394 16.1288 7.16887 15.9966 7.07872 15.9206C6.31933 15.2774 5.55032 14.6457 4.78419 14.0107C4.72901 13.9649 4.67159 13.9216 4.60774 13.8709C4.40755 14.0868 4.21923 14.2802 4.04213 14.4833C3.41396 15.2042 2.82012 15.9514 2.46529 16.8516C1.98919 18.0592 2.40016 18.8404 3.66613 19.1336C5.01615 19.4461 6.34756 19.2254 7.67769 18.9758ZM15.4955 20.3621C15.4018 20.3236 15.3335 20.2937 15.2642 20.2671C14.5962 20.0085 13.9264 19.7548 13.2606 19.4907C12.9478 19.3666 12.6443 19.1208 12.3341 19.1163C12.0133 19.1115 11.6909 19.3377 11.3655 19.4532C10.772 19.6643 10.1763 19.8686 9.56381 20.0817C9.96195 21.3223 10.3983 22.5347 11.217 23.5636C11.3935 23.7852 11.6068 23.9883 11.8355 24.1561C12.37 24.5485 12.9241 24.5414 13.4451 24.1321C13.6745 23.9521 13.8862 23.7346 14.0588 23.4997C14.7477 22.5626 15.1496 21.4907 15.4955 20.3621ZM20.3742 12.1224C20.5558 11.9264 20.7387 11.739 20.91 11.542C21.5542 10.8019 22.1693 10.039 22.5222 9.10826C22.9687 7.92988 22.5671 7.16279 21.3425 6.87277C19.9774 6.5497 18.6306 6.76914 17.2927 7.0274C17.2873 7.07039 17.2812 7.0874 17.2838 7.10312C17.4262 8.01907 17.5667 8.93566 17.7182 9.85032C17.731 9.92796 17.8051 10.0085 17.8715 10.0624C18.1205 10.2642 18.3845 10.4477 18.6309 10.6524C19.2077 11.1314 19.7782 11.6187 20.3742 12.1224ZM7.63694 6.70786C6.66517 6.49035 5.72099 6.30652 4.75211 6.3325C4.20061 6.34726 3.65906 6.42811 3.17141 6.7207C2.70654 6.99981 2.4669 7.39699 2.54357 7.94464C2.58207 8.21862 2.63404 8.49677 2.72836 8.75535C3.12201 9.83556 3.78933 10.7454 4.54454 11.5969C4.58689 11.6447 4.6379 11.6848 4.65715 11.7024C5.47236 11.1018 6.2696 10.5196 7.05786 9.92539C7.13711 9.86572 7.19292 9.73867 7.208 9.63537C7.28372 9.11788 7.33441 8.59687 7.40884 8.07906C7.473 7.63023 7.55674 7.18364 7.63694 6.70786ZM17.3425 19.305C17.8413 19.3961 18.3194 19.4975 18.8022 19.568C19.5988 19.6845 20.4047 19.7663 21.1898 19.5318C22.3656 19.1805 22.6332 18.5716 22.3351 17.5164C22.0829 16.6235 21.5892 15.8587 21.0345 15.1304C20.8067 14.8314 20.5565 14.5501 20.3367 14.2851C19.4962 14.9033 18.6857 15.4955 17.8834 16.0977C17.8163 16.1481 17.7785 16.2648 17.766 16.3563C17.7101 16.7573 17.6771 17.1615 17.6193 17.5626C17.5369 18.1285 17.4403 18.6932 17.3425 19.305ZM8.8211 8.81054C9.49772 8.44608 10.123 8.10922 10.7922 7.74861C10.2099 7.53206 9.67256 7.33251 9.10567 7.12173C9.0075 7.70434 8.91863 8.23306 8.8211 8.81054ZM14.1792 18.2507C14.7698 18.4695 15.3065 18.6681 15.8712 18.877C15.969 18.2899 16.0576 17.7612 16.1522 17.1927C15.4875 17.5491 14.8619 17.8847 14.1792 18.2507ZM17.9119 12.005C17.9119 12.7666 17.9119 13.4682 17.9119 14.226C18.38 13.8561 18.8013 13.5237 19.2488 13.1702C18.7961 12.7756 18.3665 12.4012 17.9119 12.005ZM7.07005 11.7695C6.59748 12.1429 6.17431 12.4775 5.7258 12.832C6.18747 13.2315 6.61641 13.603 7.07005 13.9953C7.07005 13.2388 7.07005 12.5375 7.07005 11.7695ZM16.0528 8.80829C15.9607 8.31551 15.8776 7.86988 15.791 7.4063C15.3277 7.55869 14.9065 7.69728 14.4483 7.84807C14.9892 8.17178 15.4977 8.47624 16.0528 8.80829ZM10.5301 18.1513C9.97382 17.8196 9.46916 17.5186 8.92023 17.1911C9.01456 17.6912 9.0983 18.1333 9.18524 18.594C9.64498 18.4429 10.0675 18.3037 10.5301 18.1513Z" fill="#636973"/>
<path d="M12.4366 10.5613C13.818 10.5664 14.9232 11.6386 14.9178 12.9681C14.912 14.3316 13.8325 15.4465 12.5254 15.4384C11.1504 15.4301 10.0458 14.3473 10.0557 13.0178C10.066 11.6672 11.1427 10.5565 12.4366 10.5613ZM13.3987 13.0159C13.4045 12.5183 12.9691 12.0833 12.4641 12.0817C11.9848 12.0801 11.5742 12.5013 11.5739 12.9954C11.5735 13.4811 12.0041 13.911 12.4965 13.9168C12.9807 13.9226 13.3933 13.5106 13.3987 13.0159Z" fill="#636973"/>
</svg>
