<svg width="24" height="26" viewBox="0 0 24 26" fill="none" xmlns="http://www.w3.org/2000/svg">
<path d="M21.4576 23.1914C21.6163 23.1489 21.6737 23.081 21.6871 22.9272C21.7932 21.712 21.9065 20.4972 22.0182 19.2823C22.1811 17.5093 22.3444 15.7362 22.507 13.9632C22.6508 12.3951 22.793 10.8271 22.9365 9.25942C23.0998 7.47818 23.2634 5.69694 23.427 3.91571C23.5334 2.7584 23.6399 1.60079 23.7454 0.443487C23.7483 0.412667 23.7422 0.380905 23.7392 0.338135C16.118 0.338135 8.50528 0.338135 0.873047 0.338135C0.930503 0.982198 0.985687 1.61211 1.04347 2.24202C1.18954 3.84275 1.33691 5.44347 1.48396 7.04419C1.64659 8.81725 1.80987 10.5903 1.97218 12.3634C2.1163 13.9396 2.25913 15.5158 2.40326 17.092C2.54901 18.6845 2.69573 20.2767 2.84148 21.8693C2.87394 22.2221 2.90998 22.575 2.93237 22.9288C2.94244 23.0848 3.01093 23.1489 3.16707 23.1907C6.09765 23.9782 9.02661 24.772 11.9556 25.566C12.0429 25.5896 12.1253 25.6296 12.2097 25.662C12.2779 25.662 12.3461 25.662 12.4139 25.662C13.0469 25.4811 13.6776 25.2934 14.3129 25.1207C16.6936 24.4735 19.0749 23.8295 21.4576 23.1914ZM12.1445 20.7752C10.2923 20.283 8.44231 19.7839 6.59041 19.2905C6.46543 19.2572 6.38266 19.2279 6.36902 19.0757C6.2447 17.6797 6.11128 16.2844 5.98176 14.8887C5.97819 14.8494 5.98696 14.8088 5.99183 14.7406C6.26807 14.7406 6.53847 14.7406 6.80887 14.7406C7.4133 14.7406 8.01772 14.7472 8.62214 14.7368C8.81366 14.7336 8.88443 14.7796 8.89774 14.9793C8.93929 15.6041 9.012 16.2271 9.06329 16.8517C9.07627 17.0114 9.13016 17.0935 9.30253 17.1369C10.2484 17.3747 11.1901 17.6288 12.1354 17.8687C12.2441 17.8964 12.3737 17.8939 12.4831 17.8659C13.4283 17.626 14.3707 17.3744 15.3156 17.1332C15.463 17.0954 15.5454 17.0416 15.563 16.8797C15.6944 15.6592 15.8347 14.4393 15.9739 13.2046C12.5931 13.2046 9.22559 13.2046 5.83017 13.2046C5.73538 12.3307 5.64157 11.4652 5.54354 10.5623C9.11198 10.5214 12.6561 10.4809 16.2193 10.44C16.2924 9.48239 16.3631 8.55592 16.4349 7.6153C12.7132 7.6153 9.00486 7.6153 5.25691 7.6153C5.19458 6.75047 5.13258 5.88406 5.06896 5.00005C9.90046 5.00005 14.7141 5.00005 19.5521 5.00005C19.4976 5.60794 19.445 6.20483 19.3901 6.80141C19.2444 8.3861 19.0983 9.97078 18.9516 11.5552C18.7889 13.3122 18.6257 15.0692 18.463 16.8262C18.3955 17.5571 18.3244 18.2873 18.2647 19.0188C18.2514 19.1833 18.192 19.2537 18.0203 19.299C16.1667 19.7865 14.3168 20.2862 12.4642 20.7771C12.3649 20.8035 12.2445 20.8019 12.1445 20.7752Z" fill="#636973"/>
</svg>
