<svg width="23" height="26" viewBox="0 0 23 26" fill="none" xmlns="http://www.w3.org/2000/svg">
<path d="M20.3257 23.2763C20.7545 23.1597 20.824 23.0914 20.8663 22.6461C20.9975 21.2678 21.1193 19.8888 21.2454 18.5101C21.4076 16.7374 21.5704 14.965 21.7327 13.1926C21.8752 11.6334 22.0167 10.074 22.1595 8.51478C22.3224 6.73389 22.4862 4.95332 22.6494 3.17244C22.7224 2.3765 22.7984 1.58056 22.8666 0.784299C22.8985 0.408813 22.8236 0.338371 22.4261 0.338371C15.0996 0.338056 7.77269 0.338056 0.44614 0.338371C0.0493238 0.338371 -0.0269377 0.408814 0.0073151 0.785557C0.16533 2.53374 0.329164 4.28128 0.489441 6.02915C0.632592 7.58833 0.773481 9.14782 0.916309 10.707C1.07917 12.4879 1.24365 14.2685 1.40619 16.0493C1.54934 17.6167 1.69023 19.1844 1.83306 20.752C1.89284 21.4087 1.96199 22.0643 2.01337 22.7216C2.03663 23.0185 2.18108 23.1766 2.47546 23.2572C5.34106 24.0389 8.20473 24.828 11.0684 25.6157C11.1078 25.6267 11.1447 25.6466 11.1828 25.662C11.3353 25.662 11.4878 25.662 11.64 25.662C12.5157 25.4164 13.3905 25.166 14.2678 24.9261C16.2865 24.3736 18.3064 23.8264 20.3257 23.2763ZM10.8819 20.7218C9.23974 20.2662 7.59173 19.83 5.94598 19.3863C5.58633 19.2894 5.50716 19.2061 5.47581 18.84C5.37499 17.6576 5.2774 16.4751 5.18596 15.2921C5.15816 14.9314 5.22699 14.8678 5.5944 14.8669C6.2549 14.8653 6.91572 14.8647 7.57622 14.8672C7.91487 14.8685 8.00535 14.9562 8.03702 15.287C8.08355 15.771 8.11393 16.2575 8.1918 16.7368C8.21539 16.8827 8.34594 17.0928 8.47164 17.1293C9.37837 17.3915 10.2942 17.6268 11.2132 17.8453C11.3993 17.8897 11.6197 17.856 11.8116 17.8092C12.6069 17.6148 13.3976 17.4028 14.1893 17.195C14.5215 17.1079 14.6155 17.0041 14.6514 16.6632C14.749 15.7374 14.842 14.8109 14.9344 13.8845C14.968 13.5467 14.8821 13.4672 14.4869 13.4672C11.5479 13.4665 8.6093 13.4669 5.67034 13.4669C5.01534 13.4669 4.99336 13.4414 4.93714 12.814C4.7216 10.401 4.50154 7.98866 4.28407 5.57599C4.27599 5.48573 4.27212 5.39516 4.26824 5.30459C4.25984 5.10962 4.371 5.01811 4.55712 4.99955C4.63274 4.992 4.70932 4.99609 4.78558 4.99609C7.00459 4.99609 9.22359 4.99609 11.4426 4.99609C13.67 4.99609 15.8974 4.99609 18.1248 4.99609C18.5643 4.99609 18.6341 5.06685 18.595 5.48856C18.5387 6.09582 18.4819 6.70276 18.4169 7.30907C18.372 7.72733 18.3151 7.7701 17.8692 7.7701C15.286 7.77041 12.7028 7.7701 10.1197 7.7701C9.3745 7.7701 8.62901 7.76947 7.88385 7.77041C7.48089 7.77104 7.39849 7.85595 7.43113 8.23678C7.48703 8.88523 7.53971 9.53431 7.60336 10.1821C7.64408 10.5938 7.70483 10.6406 8.12718 10.641C11.1424 10.6413 14.1573 10.6413 17.1725 10.6413C17.3502 10.6413 17.5283 10.6388 17.706 10.6419C18.0291 10.6479 18.1196 10.7322 18.0922 11.0454C18.0056 12.0303 17.9099 13.0146 17.8172 13.9989C17.6724 15.533 17.5273 17.067 17.3822 18.601C17.3738 18.6913 17.3609 18.7812 17.3564 18.8718C17.3415 19.1595 17.1825 19.3108 16.9004 19.3856C15.2447 19.8246 13.5879 20.2618 11.9389 20.724C11.5725 20.8259 11.2439 20.8225 10.8819 20.7218Z" fill="#636973"/>
</svg>
