<svg width="24" height="26" viewBox="0 0 24 26" fill="none" xmlns="http://www.w3.org/2000/svg">
<path d="M22.997 19.8432C23.5127 19.5554 23.7493 19.1489 23.7483 18.5717C23.7416 14.8529 23.7416 11.1343 23.7486 7.41545C23.7496 6.83829 23.5156 6.43081 23.0002 6.14239C19.6781 4.28249 16.3599 2.41635 13.0433 0.546759C12.5481 0.267399 12.0805 0.268961 11.5834 0.549259C8.27446 2.4151 4.96299 4.27656 1.64671 6.12958C1.11331 6.42769 0.873892 6.84173 0.875496 7.43982C0.884804 11.1421 0.884796 14.8444 0.87581 18.5467C0.874526 19.1448 1.11651 19.5567 1.65024 19.8551C4.96588 21.7094 8.27479 23.5755 11.5869 25.4357C11.7384 25.5207 11.9011 25.587 12.0587 25.662C12.2281 25.662 12.3976 25.662 12.567 25.662C13.8457 24.9573 15.1285 24.2595 16.4023 23.5471C18.6027 22.3162 20.7953 21.0719 22.997 19.8432Z" fill="#636973"/>
</svg>
